<?xml version="1.0" encoding="UTF-8"?>
<svg version="1.1" xmlns="http://www.w3.org/2000/svg" width="500" height="500">
<path d="M0 0 C165 0 330 0 500 0 C500 165 500 330 500 500 C335 500 170 500 0 500 C0 335 0 170 0 0 Z " fill="#000000" transform="translate(0,0)"/>
<path d="M0 0 C1.81274414 0.00676758 1.81274414 0.00676758 3.66210938 0.01367188 C6.62895789 0.02539855 9.5957027 0.04181104 12.5625 0.0625 C8.93280128 3.13690899 5.24487557 5.43323794 1.0625 7.6875 C-9.47235069 13.54468737 -18.55909092 20.98002262 -27.31640625 29.25 C-29.4375 31.0625 -29.4375 31.0625 -31.58984375 32.0625 C-33.96608524 33.34858419 -34.32061735 34.64712777 -35.4375 37.0625 C-36.52222219 38.18616093 -37.65332314 39.26581709 -38.8125 40.3125 C-68.68863011 69.53797029 -85.20990274 115.0322397 -85.80293274 156.26976013 C-85.81782159 158.36751082 -85.81817255 160.46470794 -85.8125 162.5625 C-85.81228851 163.2945163 -85.81207703 164.02653259 -85.81185913 164.7807312 C-85.67961469 211.03557441 -67.33992496 253.10280312 -36.4375 287.0625 C-35.96618652 287.58054199 -35.49487305 288.09858398 -35.00927734 288.63232422 C-4.47520232 321.69408962 41.15805689 341.09777943 85.78613281 343.16552734 C116.66516193 344.38264794 148.45673002 338.32753963 175.91162109 323.81665039 C177.5625 323.0625 177.5625 323.0625 179.5625 323.0625 C175.01328989 333.05661963 166.54129518 341.67870279 159.03808594 349.51953125 C158.04660187 350.55629156 157.06033023 351.5980596 156.07910156 352.64453125 C147.38184506 361.89908769 137.89951173 369.6974728 127.5625 377.0625 C126.9845166 377.4745166 126.4065332 377.8865332 125.81103516 378.31103516 C104.76322009 393.06147468 81.14764363 402.98477535 56.375 409.4375 C55.47467041 409.67645996 54.57434082 409.91541992 53.64672852 410.16162109 C38.89139954 413.77682722 23.64178358 414.41893927 8.51025391 414.37817383 C6.06237686 414.37499984 3.61569952 414.39867184 1.16796875 414.42382812 C-15.83580672 414.49125757 -32.08999793 411.63348431 -48.4375 407.0625 C-50.28988281 406.55976562 -50.28988281 406.55976562 -52.1796875 406.046875 C-94.74395624 393.6866988 -135.0623601 365.59905691 -160.4375 329.0625 C-161.2356648 327.9557203 -162.03384226 326.84894975 -162.83203125 325.7421875 C-177.45466382 305.04727327 -188.42499326 281.06079302 -193.93701172 256.29638672 C-194.30382235 254.65915877 -194.68817456 253.02583449 -195.08251953 251.39501953 C-207.19199567 200.49146068 -197.60577905 144.93853933 -170.6015625 100.24609375 C-168.00078108 96.09945359 -165.26012293 92.06067756 -162.4375 88.0625 C-162.04852539 87.50530273 -161.65955078 86.94810547 -161.25878906 86.37402344 C-155.6174357 78.35478826 -149.21057192 71.12620747 -142.4375 64.0625 C-141.88320312 63.4756543 -141.32890625 62.88880859 -140.7578125 62.28417969 C-108.67027314 28.43182567 -66.24569529 8.1541453 -20.4375 1.0625 C-18.88095703 0.77826172 -18.88095703 0.77826172 -17.29296875 0.48828125 C-11.52970419 -0.1481887 -5.79292834 -0.0410846 0 0 Z " fill="#CDD9DB" transform="translate(259.4375,42.9375)"/>
</svg>
